<?xml version="1.0" encoding="UTF-8"?>
<svg id="Layer_2" data-name="Layer 2" xmlns="http://www.w3.org/2000/svg" viewBox="0 0 425.54 175.74">
  <g id="Layer_1-2" data-name="Layer 1">
    <g>
      <g>
        <path d="M306.22,51.48l-17.84-4.03,10.07-10.93s25.74,10.55,26.39,23.57c.03.57-18.62-8.61-18.62-8.61Z"/>
        <g>
          <path d="M201.78,16.95s65.6,29.06,73.94,38.26c4.66,5.15,22.73-18.7,22.73-18.7,0,0,23.88,8.34,26.18,20.43,2.3,12.08-7.77-30.21-7.77-30.21l25.32-25.03-140.4,15.25Z" fill="none" stroke="#000" stroke-miterlimit="10" stroke-width="2.62"/>
          <polyline points="317.53 26.28 201.78 16.95 298.45 36.52" fill="none" stroke="#000" stroke-miterlimit="10" stroke-width="2.62"/>
        </g>
      </g>
      <g>
        <polygon points="0 150.04 36.32 150.04 36.32 139.92 12.41 139.92 12.41 128.53 34.45 128.53 34.45 118.61 12.41 118.61 12.41 107.78 36.35 107.78 36.35 97.66 0 97.66 0 150.04"/>
        <path d="M64.79,129.97c-.77,2.6-1.45,5.24-2.02,7.93-.21.98-.42,1.99-.63,3.02-.22-1.03-.44-2.05-.65-3.04-.59-2.69-1.28-5.33-2.07-7.91l-5.87-19.23h-12.94l14.24,39.3h14.2l14.31-39.3h-12.8l-5.77,19.23Z"/>
        <path d="M161.4,112.07c-2.04-1.22-4.43-1.83-7.17-1.83-3.47,0-6.23.96-8.28,2.87-1.74,1.62-3.07,3.71-4.02,6.21l-.21-8.58h-11.53v39.3h12.27v-22.43c0-1.55.28-2.86.84-3.94.56-1.08,1.35-1.9,2.37-2.48,1.02-.57,2.19-.86,3.5-.86,2.02,0,3.59.63,4.71,1.88,1.12,1.25,1.69,2.98,1.69,5.19v22.64h12.27v-25.03c0-2.95-.56-5.54-1.69-7.77-1.12-2.23-2.71-3.95-4.75-5.17Z"/>
        <polygon points="169 107.78 184.85 107.78 184.85 150.04 197.23 150.04 197.23 107.78 213.08 107.78 213.08 97.66 169 97.66 169 107.78"/>
        <path d="M236.88,110.24c-2.16,0-4.05.63-5.68,1.88-1.63,1.25-2.79,3.18-3.5,5.78h-.42v-7.17h-11.92v39.3h12.27v-21.45c0-1.57.34-2.94,1.02-4.11.68-1.17,1.62-2.09,2.81-2.76s2.54-1,4.04-1c.75,0,1.6.05,2.55.16s1.72.26,2.3.47v-10.69c-.52-.14-1.08-.25-1.71-.32-.62-.07-1.21-.11-1.78-.11Z"/>
        <path d="M310.8,137.54c-.39.83-.87,1.54-1.44,2.11s-1.23,1.01-1.95,1.3c-.73.29-1.55.44-2.46.44-1.57,0-2.91-.44-4.01-1.32-1.1-.88-1.94-2.14-2.51-3.78-.57-1.64-.86-3.59-.86-5.84s.29-4.19.86-5.82c.57-1.63,1.41-2.87,2.51-3.73,1.1-.86,2.44-1.28,4.01-1.28.89,0,1.71.14,2.44.42s1.38.7,1.93,1.27c.55.56,1.02,1.24,1.41,2.04.39.8.67,1.71.86,2.74l11.32-1.9c-.3-2.13-.94-4.06-1.92-5.78-.97-1.72-2.24-3.19-3.81-4.39-1.57-1.21-3.4-2.14-5.48-2.79-2.09-.66-4.38-.98-6.89-.98-4.1,0-7.63.85-10.58,2.55-2.95,1.7-5.22,4.07-6.8,7.1-1.58,3.04-2.37,6.58-2.37,10.63s.79,7.56,2.37,10.6c1.58,3.04,3.85,5.4,6.8,7.1,2.95,1.7,6.48,2.55,10.58,2.55,2.51,0,4.81-.33,6.91-.98,2.1-.66,3.93-1.6,5.5-2.85,1.57-1.24,2.84-2.74,3.81-4.48.97-1.75,1.61-3.72,1.92-5.92l-11.32-1.83c-.16,1.05-.44,2-.83,2.83Z"/>
        <path d="M323.91,52.9l.88,7.32c155.92,93.76,56.8,147.16,28.62,67.66l14.03-17.15h-13.96l-11.25,14.2h-.56v-27.28h-12.27v52.38h12.27v-11.88l2.59-3.12c31.47,80.61,177.16,35.39-20.36-82.14Z"/>
        <path d="M123.75,130.28c0-3.26-.46-6.13-1.39-8.61-.93-2.48-2.24-4.58-3.94-6.28-1.7-1.7-3.7-2.98-6.01-3.85-2.31-.87-4.85-1.3-7.61-1.3-3.94,0-7.36.85-10.27,2.55-2.91,1.7-5.15,4.07-6.73,7.12-1.58,3.05-2.37,6.59-2.37,10.62s.79,7.8,2.37,10.83,3.86,5.35,6.84,6.98c2.98,1.63,6.52,2.44,10.62,2.44,3.19,0,6.01-.46,8.46-1.37,2.45-.91,4.48-2.21,6.08-3.88,1.6-1.68,2.74-3.64,3.39-5.89l-10.93-1.79c-.33.87-.81,1.61-1.46,2.21-.65.61-1.42,1.07-2.32,1.37-.9.3-1.9.46-3.01.46-1.59,0-2.99-.33-4.18-1s-2.13-1.68-2.79-3.02c-.6-1.22-.92-2.72-.98-4.48h26.24v-3.09ZM97.39,125.81c-.01-10.45,16.9-10.36,16.91,0h-16.91Z"/>
        <path d="M277.1,117.75c-.89-1.63-2.13-3-3.73-4.11-1.59-1.11-3.45-1.96-5.57-2.53-2.12-.57-4.4-.86-6.84-.86-3.28,0-6.15.47-8.6,1.42-2.45.95-4.43,2.27-5.94,3.97-1.51,1.7-2.53,3.67-3.04,5.92l11.11,1.44c.23-.82.63-1.53,1.2-2.14.56-.61,1.28-1.08,2.16-1.41.88-.33,1.88-.49,3.01-.49s2.09.16,2.88.49c.8.33,1.41.81,1.83,1.44s.63,1.41.63,2.32v.14c0,.8-.32,1.42-.95,1.86-.63.45-1.63.78-2.99,1-1.36.22-3.15.43-5.38.62-1.99.16-3.87.49-5.62.98s-3.32,1.21-4.68,2.14c-1.36.94-2.42,2.16-3.18,3.66-.76,1.5-1.14,3.34-1.14,5.52,0,2.58.55,4.73,1.65,6.45,1.1,1.72,2.63,3.01,4.59,3.87,1.96.86,4.19,1.28,6.7,1.28,1.83,0,3.46-.24,4.9-.72s2.71-1.18,3.8-2.09,1.99-2.05,2.69-3.41h.32v5.52h11.53v-26.68c0-2.11-.45-3.98-1.34-5.61ZM264.56,137.57c-.44,3.1-4.22,5.25-7.35,5.25s-7.21-.3-7.14-3.43c.08-3.88,4.57-5,7.49-6.05,3.87-1.39,8.15-3.83,7.01,4.22Z"/>
      </g>
    </g>
  </g>
</svg>